<?xml version="1.0" encoding="UTF-8" standalone="no"?>
<!DOCTYPE svg PUBLIC "-//W3C//DTD SVG 1.1//EN"
 "http://www.w3.org/Graphics/SVG/1.1/DTD/svg11.dtd">
<!-- Generated by graphviz version 2.43.0 (0)
 -->
<!-- Title: example Pages: 1 -->
<svg width="581pt" height="45pt"
 viewBox="0.00 0.00 580.50 45.00" xmlns="http://www.w3.org/2000/svg" xmlns:xlink="http://www.w3.org/1999/xlink">
<g id="graph0" class="graph" transform="scale(1 1) rotate(0) translate(4 41)">
<title>example</title>
<polygon fill="white" stroke="transparent" points="-4,4 -4,-41 576.5,-41 576.5,4 -4,4"/>
<!-- a -->
<g id="node1" class="node">
<title>a</title>
<g id="a_node1"><a xlink:href="d3/d61/classNormalForceSpecies.html" target="_top" xlink:title="Normal Force species">
<polygon fill="none" stroke="black" points="0,-0.5 0,-36.5 122,-36.5 122,-0.5 0,-0.5"/>
<text text-anchor="middle" x="61" y="-16" font-family="Helvetica,sans-Serif" font-size="10.00">Normal Force species</text>
</a>
</g>
</g>
<!-- b -->
<g id="node2" class="node">
<title>b</title>
<g id="a_node2"><a xlink:href="dd/d64/classFrictionForceSpecies.html" target="_top" xlink:title="Friction Force species">
<polygon fill="none" stroke="black" points="140,-0.5 140,-36.5 262,-36.5 262,-0.5 140,-0.5"/>
<text text-anchor="middle" x="201" y="-16" font-family="Helvetica,sans-Serif" font-size="10.00">Friction Force species</text>
</a>
</g>
</g>
<!-- c -->
<g id="node3" class="node">
<title>c</title>
<g id="a_node3"><a xlink:href="d7/d53/classNormalForceInteraction.html" target="_top" xlink:title="Normal Force Interaction">
<polygon fill="none" stroke="black" points="280.5,-0.5 280.5,-36.5 417.5,-36.5 417.5,-0.5 280.5,-0.5"/>
<text text-anchor="middle" x="349" y="-16" font-family="Helvetica,sans-Serif" font-size="10.00">Normal Force Interaction</text>
</a>
</g>
</g>
<!-- d -->
<g id="node4" class="node">
<title>d</title>
<g id="a_node4"><a xlink:href="" target="_top" xlink:title="Friction Force Interaction">
<polygon fill="none" stroke="black" points="435.5,-0.5 435.5,-36.5 572.5,-36.5 572.5,-0.5 435.5,-0.5"/>
<text text-anchor="middle" x="504" y="-16" font-family="Helvetica,sans-Serif" font-size="10.00">Friction Force Interaction</text>
</a>
</g>
</g>
</g>
</svg>
