<?xml version="1.0" encoding="UTF-8" standalone="no"?>
<!DOCTYPE svg PUBLIC "-//W3C//DTD SVG 1.1//EN"
 "http://www.w3.org/Graphics/SVG/1.1/DTD/svg11.dtd">
<!-- Generated by graphviz version 2.43.0 (0)
 -->
<!-- Title: example Pages: 1 -->
<svg width="145pt" height="118pt"
 viewBox="0.00 0.00 145.00 118.00" xmlns="http://www.w3.org/2000/svg" xmlns:xlink="http://www.w3.org/1999/xlink">
<g id="graph0" class="graph" transform="scale(1 1) rotate(0) translate(4 114)">
<title>example</title>
<polygon fill="white" stroke="transparent" points="-4,4 -4,-114 141,-114 141,4 -4,4"/>
<!-- a -->
<g id="node1" class="node">
<title>a</title>
<g id="a_node1"><a xlink:href="d3/d61/classNormalForceSpecies.html" target="_top" xlink:title="Normal Force species">
<polygon fill="none" stroke="black" points="7.5,-73.5 7.5,-109.5 129.5,-109.5 129.5,-73.5 7.5,-73.5"/>
<text text-anchor="middle" x="68.5" y="-89" font-family="Helvetica,sans-Serif" font-size="10.00">Normal Force species</text>
</a>
</g>
</g>
<!-- f -->
<g id="node2" class="node">
<title>f</title>
<g id="a_node2"><a xlink:href="d7/d53/classNormalForceInteraction.html" target="_top" xlink:title="Normal Force Interaction">
<polygon fill="none" stroke="black" points="0,-0.5 0,-36.5 137,-36.5 137,-0.5 0,-0.5"/>
<text text-anchor="middle" x="68.5" y="-16" font-family="Helvetica,sans-Serif" font-size="10.00">Normal Force Interaction</text>
</a>
</g>
</g>
<!-- a&#45;&gt;f -->
<g id="edge1" class="edge">
<title>a&#45;&gt;f</title>
<path fill="none" stroke="black" d="M62.62,-73.31C61.78,-65.29 61.55,-55.55 61.92,-46.57"/>
<polygon fill="black" stroke="black" points="62.64,-36.53 66.42,-46.82 62.28,-41.52 61.93,-46.5 61.93,-46.5 61.93,-46.5 62.28,-41.52 57.44,-46.18 62.64,-36.53 62.64,-36.53"/>
</g>
<!-- f&#45;&gt;a -->
<g id="edge2" class="edge">
<title>f&#45;&gt;a</title>
<path fill="none" stroke="black" d="M74.36,-36.53C75.21,-44.53 75.45,-54.27 75.09,-63.25"/>
<polygon fill="black" stroke="black" points="74.38,-73.31 70.59,-63.02 74.73,-68.33 75.08,-63.34 75.08,-63.34 75.08,-63.34 74.73,-68.33 79.57,-63.65 74.38,-73.31 74.38,-73.31"/>
</g>
</g>
</svg>
