<?xml version="1.0" encoding="UTF-8" standalone="no"?>
<!DOCTYPE svg PUBLIC "-//W3C//DTD SVG 1.1//EN"
 "http://www.w3.org/Graphics/SVG/1.1/DTD/svg11.dtd">
<!-- Generated by graphviz version 2.43.0 (0)
 -->
<!-- Title: example Pages: 1 -->
<svg width="622pt" height="191pt"
 viewBox="0.00 0.00 622.00 191.00" xmlns="http://www.w3.org/2000/svg" xmlns:xlink="http://www.w3.org/1999/xlink">
<g id="graph0" class="graph" transform="scale(1 1) rotate(0) translate(4 187)">
<title>example</title>
<polygon fill="white" stroke="transparent" points="-4,4 -4,-187 618,-187 618,4 -4,4"/>
<!-- a -->
<g id="node1" class="node">
<title>a</title>
<g id="a_node1"><a xlink:href="d7/d09/classBaseSpecies.html" target="_top" xlink:title="class BaseSpecies">
<polygon fill="none" stroke="black" points="243,-146.5 243,-182.5 349,-182.5 349,-146.5 243,-146.5"/>
<text text-anchor="middle" x="296" y="-162" font-family="Helvetica,sans-Serif" font-size="10.00">class BaseSpecies</text>
</a>
</g>
</g>
<!-- f -->
<g id="node2" class="node">
<title>f</title>
<g id="a_node2"><a xlink:href="dc/d02/classParticleSpecies.html" target="_top" xlink:title="class ParticleSpecies">
<polygon fill="none" stroke="black" points="0,-73.5 0,-109.5 118,-109.5 118,-73.5 0,-73.5"/>
<text text-anchor="middle" x="59" y="-89" font-family="Helvetica,sans-Serif" font-size="10.00">class ParticleSpecies</text>
</a>
</g>
</g>
<!-- a&#45;&gt;f -->
<g id="edge4" class="edge">
<title>a&#45;&gt;f</title>
<path fill="none" stroke="black" d="M242.81,-147.57C208.24,-137.21 162.87,-123.62 125.86,-112.53"/>
<polygon fill="black" stroke="black" points="116.15,-109.62 127.02,-108.18 120.94,-111.06 125.73,-112.49 125.73,-112.49 125.73,-112.49 120.94,-111.06 124.44,-116.8 116.15,-109.62 116.15,-109.62"/>
</g>
<!-- b -->
<g id="node3" class="node">
<title>b</title>
<g id="a_node3"><a xlink:href="d9/d71/classAdhesiveForceSpecies.html" target="_top" xlink:title="class AdhesiveForceSpecies">
<polygon fill="none" stroke="black" points="136.5,-73.5 136.5,-109.5 289.5,-109.5 289.5,-73.5 136.5,-73.5"/>
<text text-anchor="middle" x="213" y="-89" font-family="Helvetica,sans-Serif" font-size="10.00">class AdhesiveForceSpecies</text>
</a>
</g>
</g>
<!-- a&#45;&gt;b -->
<g id="edge1" class="edge">
<title>a&#45;&gt;b</title>
<path fill="none" stroke="black" d="M275.91,-146.31C265.31,-137.24 252.13,-125.98 240.59,-116.1"/>
<polygon fill="black" stroke="black" points="232.91,-109.53 243.43,-112.61 236.71,-112.78 240.51,-116.03 240.51,-116.03 240.51,-116.03 236.71,-112.78 237.58,-119.45 232.91,-109.53 232.91,-109.53"/>
</g>
<!-- c -->
<g id="node4" class="node">
<title>c</title>
<g id="a_node4"><a xlink:href="dd/d64/classFrictionForceSpecies.html" target="_top" xlink:title="class FrictionForceSpecies">
<polygon fill="none" stroke="black" points="308,-73.5 308,-109.5 452,-109.5 452,-73.5 308,-73.5"/>
<text text-anchor="middle" x="380" y="-89" font-family="Helvetica,sans-Serif" font-size="10.00">class FrictionForceSpecies</text>
</a>
</g>
</g>
<!-- a&#45;&gt;c -->
<g id="edge2" class="edge">
<title>a&#45;&gt;c</title>
<path fill="none" stroke="black" d="M316.33,-146.31C327.06,-137.24 340.39,-125.98 352.08,-116.1"/>
<polygon fill="black" stroke="black" points="359.85,-109.53 355.12,-119.42 356.03,-112.76 352.22,-115.98 352.22,-115.98 352.22,-115.98 356.03,-112.76 349.31,-112.55 359.85,-109.53 359.85,-109.53"/>
</g>
<!-- d -->
<g id="node5" class="node">
<title>d</title>
<g id="a_node5"><a xlink:href="d3/d61/classNormalForceSpecies.html" target="_top" xlink:title="class NormalForceSpecies">
<polygon fill="none" stroke="black" points="470,-73.5 470,-109.5 614,-109.5 614,-73.5 470,-73.5"/>
<text text-anchor="middle" x="542" y="-89" font-family="Helvetica,sans-Serif" font-size="10.00">class NormalForceSpecies</text>
</a>
</g>
</g>
<!-- a&#45;&gt;d -->
<g id="edge3" class="edge">
<title>a&#45;&gt;d</title>
<path fill="none" stroke="black" d="M349.08,-148.18C385.4,-137.7 433.92,-123.69 473.21,-112.35"/>
<polygon fill="black" stroke="black" points="482.99,-109.53 474.63,-116.63 478.18,-110.92 473.38,-112.31 473.38,-112.31 473.38,-112.31 478.18,-110.92 472.13,-107.98 482.99,-109.53 482.99,-109.53"/>
</g>
<!-- e -->
<g id="node6" class="node">
<title>e</title>
<g id="a_node6"><a xlink:href="d9/d0c/classSpecies.html" target="_top" xlink:title="class Species">
<polygon fill="none" stroke="black" points="255,-0.5 255,-36.5 337,-36.5 337,-0.5 255,-0.5"/>
<text text-anchor="middle" x="296" y="-16" font-family="Helvetica,sans-Serif" font-size="10.00">class Species</text>
</a>
</g>
</g>
<!-- f&#45;&gt;e -->
<g id="edge5" class="edge">
<title>f&#45;&gt;e</title>
<path fill="none" stroke="black" d="M115.77,-73.49C155.11,-61.71 207.06,-46.14 245.07,-34.76"/>
<polygon fill="black" stroke="black" points="254.91,-31.81 246.62,-38.99 250.12,-33.24 245.33,-34.68 245.33,-34.68 245.33,-34.68 250.12,-33.24 244.04,-30.37 254.91,-31.81 254.91,-31.81"/>
</g>
<!-- b&#45;&gt;e -->
<g id="edge6" class="edge">
<title>b&#45;&gt;e</title>
<path fill="none" stroke="black" d="M233.09,-73.31C243.69,-64.24 256.87,-52.98 268.41,-43.1"/>
<polygon fill="black" stroke="black" points="276.09,-36.53 271.42,-46.45 272.29,-39.78 268.49,-43.03 268.49,-43.03 268.49,-43.03 272.29,-39.78 265.57,-39.61 276.09,-36.53 276.09,-36.53"/>
</g>
<!-- c&#45;&gt;e -->
<g id="edge7" class="edge">
<title>c&#45;&gt;e</title>
<path fill="none" stroke="black" d="M359.67,-73.31C348.94,-64.24 335.61,-52.98 323.92,-43.1"/>
<polygon fill="black" stroke="black" points="316.15,-36.53 326.69,-39.55 319.97,-39.76 323.78,-42.98 323.78,-42.98 323.78,-42.98 319.97,-39.76 320.88,-46.42 316.15,-36.53 316.15,-36.53"/>
</g>
<!-- d&#45;&gt;e -->
<g id="edge8" class="edge">
<title>d&#45;&gt;e</title>
<path fill="none" stroke="black" d="M483.08,-73.49C441.54,-61.5 386.47,-45.61 346.85,-34.18"/>
<polygon fill="black" stroke="black" points="337.13,-31.37 347.99,-29.82 341.93,-32.76 346.74,-34.14 346.74,-34.14 346.74,-34.14 341.93,-32.76 345.49,-38.47 337.13,-31.37 337.13,-31.37"/>
</g>
</g>
</svg>
