<?xml version="1.0" encoding="UTF-8" standalone="no"?>
<!DOCTYPE svg PUBLIC "-//W3C//DTD SVG 1.1//EN"
 "http://www.w3.org/Graphics/SVG/1.1/DTD/svg11.dtd">
<!-- Generated by graphviz version 2.43.0 (0)
 -->
<!-- Title: example Pages: 1 -->
<svg width="681pt" height="191pt"
 viewBox="0.00 0.00 681.00 191.00" xmlns="http://www.w3.org/2000/svg" xmlns:xlink="http://www.w3.org/1999/xlink">
<g id="graph0" class="graph" transform="scale(1 1) rotate(0) translate(4 187)">
<title>example</title>
<polygon fill="white" stroke="transparent" points="-4,4 -4,-187 677,-187 677,4 -4,4"/>
<!-- a -->
<g id="node1" class="node">
<title>a</title>
<g id="a_node1"><a xlink:href="d7/d95/classBaseInteraction.html" target="_top" xlink:title="class BaseInteraction">
<polygon fill="none" stroke="black" points="265,-146.5 265,-182.5 386,-182.5 386,-146.5 265,-146.5"/>
<text text-anchor="middle" x="325.5" y="-162" font-family="Helvetica,sans-Serif" font-size="10.00">class BaseInteraction</text>
</a>
</g>
</g>
<!-- f -->
<g id="node2" class="node">
<title>f</title>
<g id="a_node2"><a xlink:href="" target="_top" xlink:title="class ParticleInteraction">
<polygon fill="none" stroke="black" points="0,-73.5 0,-109.5 133,-109.5 133,-73.5 0,-73.5"/>
<text text-anchor="middle" x="66.5" y="-89" font-family="Helvetica,sans-Serif" font-size="10.00">class ParticleInteraction</text>
</a>
</g>
</g>
<!-- a&#45;&gt;f -->
<g id="edge4" class="edge">
<title>a&#45;&gt;f</title>
<path fill="none" stroke="black" d="M264.78,-146.85C227.01,-136.5 178.25,-123.13 138.53,-112.25"/>
<polygon fill="black" stroke="black" points="128.64,-109.54 139.48,-107.84 133.46,-110.86 138.29,-112.18 138.29,-112.18 138.29,-112.18 133.46,-110.86 137.1,-116.52 128.64,-109.54 128.64,-109.54"/>
</g>
<!-- b -->
<g id="node3" class="node">
<title>b</title>
<g id="a_node3"><a xlink:href="" target="_top" xlink:title="class AdhesiveForceInteraction">
<polygon fill="none" stroke="black" points="151.5,-73.5 151.5,-109.5 319.5,-109.5 319.5,-73.5 151.5,-73.5"/>
<text text-anchor="middle" x="235.5" y="-89" font-family="Helvetica,sans-Serif" font-size="10.00">class AdhesiveForceInteraction</text>
</a>
</g>
</g>
<!-- a&#45;&gt;b -->
<g id="edge1" class="edge">
<title>a&#45;&gt;b</title>
<path fill="none" stroke="black" d="M303.71,-146.31C292.11,-137.16 277.66,-125.76 265.06,-115.82"/>
<polygon fill="black" stroke="black" points="257.09,-109.53 267.72,-112.19 261.01,-112.63 264.94,-115.72 264.94,-115.72 264.94,-115.72 261.01,-112.63 262.15,-119.26 257.09,-109.53 257.09,-109.53"/>
</g>
<!-- c -->
<g id="node4" class="node">
<title>c</title>
<g id="a_node4"><a xlink:href="" target="_top" xlink:title="class FrictionForceInteraction">
<polygon fill="none" stroke="black" points="337,-73.5 337,-109.5 496,-109.5 496,-73.5 337,-73.5"/>
<text text-anchor="middle" x="416.5" y="-89" font-family="Helvetica,sans-Serif" font-size="10.00">class FrictionForceInteraction</text>
</a>
</g>
</g>
<!-- a&#45;&gt;c -->
<g id="edge2" class="edge">
<title>a&#45;&gt;c</title>
<path fill="none" stroke="black" d="M347.53,-146.31C359.27,-137.16 373.87,-125.76 386.62,-115.82"/>
<polygon fill="black" stroke="black" points="394.67,-109.53 389.56,-119.23 390.73,-112.6 386.79,-115.68 386.79,-115.68 386.79,-115.68 390.73,-112.6 384.02,-112.13 394.67,-109.53 394.67,-109.53"/>
</g>
<!-- d -->
<g id="node5" class="node">
<title>d</title>
<g id="a_node5"><a xlink:href="d7/d53/classNormalForceInteraction.html" target="_top" xlink:title="class NormalForceInteraction">
<polygon fill="none" stroke="black" points="514,-73.5 514,-109.5 673,-109.5 673,-73.5 514,-73.5"/>
<text text-anchor="middle" x="593.5" y="-89" font-family="Helvetica,sans-Serif" font-size="10.00">class NormalForceInteraction</text>
</a>
</g>
</g>
<!-- a&#45;&gt;d -->
<g id="edge3" class="edge">
<title>a&#45;&gt;d</title>
<path fill="none" stroke="black" d="M386.31,-147.39C425.77,-136.93 477.45,-123.24 519.32,-112.15"/>
<polygon fill="black" stroke="black" points="529.19,-109.54 520.68,-116.45 524.36,-110.82 519.52,-112.1 519.52,-112.1 519.52,-112.1 524.36,-110.82 518.37,-107.75 529.19,-109.54 529.19,-109.54"/>
</g>
<!-- e -->
<g id="node6" class="node">
<title>e</title>
<g id="a_node6"><a xlink:href="db/d0c/classInteraction.html" target="_top" xlink:title="class Interaction">
<polygon fill="none" stroke="black" points="277,-0.5 277,-36.5 374,-36.5 374,-0.5 277,-0.5"/>
<text text-anchor="middle" x="325.5" y="-16" font-family="Helvetica,sans-Serif" font-size="10.00">class Interaction</text>
</a>
</g>
</g>
<!-- f&#45;&gt;e -->
<g id="edge5" class="edge">
<title>f&#45;&gt;e</title>
<path fill="none" stroke="black" d="M128.54,-73.49C170.66,-61.95 225.98,-46.78 267.27,-35.46"/>
<polygon fill="black" stroke="black" points="276.92,-32.82 268.46,-39.8 272.09,-34.14 267.27,-35.46 267.27,-35.46 267.27,-35.46 272.09,-34.14 266.08,-31.12 276.92,-32.82 276.92,-32.82"/>
</g>
<!-- b&#45;&gt;e -->
<g id="edge6" class="edge">
<title>b&#45;&gt;e</title>
<path fill="none" stroke="black" d="M257.29,-73.31C268.89,-64.16 283.34,-52.76 295.94,-42.82"/>
<polygon fill="black" stroke="black" points="303.91,-36.53 298.85,-46.26 299.99,-39.63 296.06,-42.72 296.06,-42.72 296.06,-42.72 299.99,-39.63 293.28,-39.19 303.91,-36.53 303.91,-36.53"/>
</g>
<!-- c&#45;&gt;e -->
<g id="edge7" class="edge">
<title>c&#45;&gt;e</title>
<path fill="none" stroke="black" d="M394.47,-73.31C382.73,-64.16 368.13,-52.76 355.38,-42.82"/>
<polygon fill="black" stroke="black" points="347.33,-36.53 357.98,-39.13 351.27,-39.6 355.21,-42.68 355.21,-42.68 355.21,-42.68 351.27,-39.6 352.44,-46.23 347.33,-36.53 347.33,-36.53"/>
</g>
<!-- d&#45;&gt;e -->
<g id="edge8" class="edge">
<title>d&#45;&gt;e</title>
<path fill="none" stroke="black" d="M529.31,-73.49C485.06,-61.77 426.72,-46.32 383.8,-34.95"/>
<polygon fill="black" stroke="black" points="374.07,-32.37 384.89,-30.58 378.9,-33.65 383.73,-34.93 383.73,-34.93 383.73,-34.93 378.9,-33.65 382.58,-39.28 374.07,-32.37 374.07,-32.37"/>
</g>
</g>
</svg>
