<?xml version="1.0" encoding="UTF-8" standalone="no"?>
<!DOCTYPE svg PUBLIC "-//W3C//DTD SVG 1.1//EN"
 "http://www.w3.org/Graphics/SVG/1.1/DTD/svg11.dtd">
<!-- Generated by graphviz version 2.43.0 (0)
 -->
<!-- Title: example Pages: 1 -->
<svg width="486pt" height="191pt"
 viewBox="0.00 0.00 485.50 191.00" xmlns="http://www.w3.org/2000/svg" xmlns:xlink="http://www.w3.org/1999/xlink">
<g id="graph0" class="graph" transform="scale(1 1) rotate(0) translate(4 187)">
<title>example</title>
<polygon fill="white" stroke="transparent" points="-4,4 -4,-187 481.5,-187 481.5,4 -4,4"/>
<!-- a -->
<g id="node1" class="node">
<title>a</title>
<g id="a_node1"><a xlink:href="d7/d09/classBaseSpecies.html" target="_top" xlink:title="class BaseSpecies">
<polygon fill="none" stroke="black" points="190.5,-146.5 190.5,-182.5 296.5,-182.5 296.5,-146.5 190.5,-146.5"/>
<text text-anchor="middle" x="243.5" y="-162" font-family="Helvetica,sans-Serif" font-size="10.00">class BaseSpecies</text>
</a>
</g>
</g>
<!-- b -->
<g id="node2" class="node">
<title>b</title>
<g id="a_node2"><a xlink:href="d9/d71/classAdhesiveForceSpecies.html" target="_top" xlink:title="class AdhesiveForceSpecies">
<polygon fill="none" stroke="black" points="0,-73.5 0,-109.5 153,-109.5 153,-73.5 0,-73.5"/>
<text text-anchor="middle" x="76.5" y="-89" font-family="Helvetica,sans-Serif" font-size="10.00">class AdhesiveForceSpecies</text>
</a>
</g>
</g>
<!-- a&#45;&gt;b -->
<g id="edge1" class="edge">
<title>a&#45;&gt;b</title>
<path fill="none" stroke="black" d="M203.5,-146.49C180.23,-136.6 150.7,-124.04 125.97,-113.53"/>
<polygon fill="black" stroke="black" points="116.75,-109.61 127.72,-109.38 121.35,-111.57 125.96,-113.53 125.96,-113.53 125.96,-113.53 121.35,-111.57 124.2,-117.67 116.75,-109.61 116.75,-109.61"/>
</g>
<!-- c -->
<g id="node3" class="node">
<title>c</title>
<g id="a_node3"><a xlink:href="dd/d64/classFrictionForceSpecies.html" target="_top" xlink:title="class FrictionForceSpecies">
<polygon fill="none" stroke="black" points="171.5,-73.5 171.5,-109.5 315.5,-109.5 315.5,-73.5 171.5,-73.5"/>
<text text-anchor="middle" x="243.5" y="-89" font-family="Helvetica,sans-Serif" font-size="10.00">class FrictionForceSpecies</text>
</a>
</g>
</g>
<!-- a&#45;&gt;c -->
<g id="edge2" class="edge">
<title>a&#45;&gt;c</title>
<path fill="none" stroke="black" d="M243.5,-146.31C243.5,-138.29 243.5,-128.55 243.5,-119.57"/>
<polygon fill="black" stroke="black" points="243.5,-109.53 248,-119.53 243.5,-114.53 243.5,-119.53 243.5,-119.53 243.5,-119.53 243.5,-114.53 239,-119.53 243.5,-109.53 243.5,-109.53"/>
</g>
<!-- d -->
<g id="node4" class="node">
<title>d</title>
<g id="a_node4"><a xlink:href="d3/d61/classNormalForceSpecies.html" target="_top" xlink:title="class NormalForceSpecies">
<polygon fill="none" stroke="black" points="333.5,-73.5 333.5,-109.5 477.5,-109.5 477.5,-73.5 333.5,-73.5"/>
<text text-anchor="middle" x="405.5" y="-89" font-family="Helvetica,sans-Serif" font-size="10.00">class NormalForceSpecies</text>
</a>
</g>
</g>
<!-- a&#45;&gt;d -->
<g id="edge3" class="edge">
<title>a&#45;&gt;d</title>
<path fill="none" stroke="black" d="M282.3,-146.49C304.78,-136.64 333.27,-124.16 357.19,-113.67"/>
<polygon fill="black" stroke="black" points="366.45,-109.61 359.1,-117.75 361.87,-111.62 357.29,-113.63 357.29,-113.63 357.29,-113.63 361.87,-111.62 355.49,-109.51 366.45,-109.61 366.45,-109.61"/>
</g>
<!-- e -->
<g id="node5" class="node">
<title>e</title>
<g id="a_node5"><a xlink:href="d1/d43/classMixedSpecies.html" target="_top" xlink:title="class MixedSpecies">
<polygon fill="none" stroke="black" points="188,-0.5 188,-36.5 299,-36.5 299,-0.5 188,-0.5"/>
<text text-anchor="middle" x="243.5" y="-16" font-family="Helvetica,sans-Serif" font-size="10.00">class MixedSpecies</text>
</a>
</g>
</g>
<!-- b&#45;&gt;e -->
<g id="edge4" class="edge">
<title>b&#45;&gt;e</title>
<path fill="none" stroke="black" d="M116.5,-73.49C139.77,-63.6 169.3,-51.04 194.03,-40.53"/>
<polygon fill="black" stroke="black" points="203.25,-36.61 195.8,-44.67 198.65,-38.57 194.04,-40.53 194.04,-40.53 194.04,-40.53 198.65,-38.57 192.28,-36.38 203.25,-36.61 203.25,-36.61"/>
</g>
<!-- c&#45;&gt;e -->
<g id="edge5" class="edge">
<title>c&#45;&gt;e</title>
<path fill="none" stroke="black" d="M243.5,-73.31C243.5,-65.29 243.5,-55.55 243.5,-46.57"/>
<polygon fill="black" stroke="black" points="243.5,-36.53 248,-46.53 243.5,-41.53 243.5,-46.53 243.5,-46.53 243.5,-46.53 243.5,-41.53 239,-46.53 243.5,-36.53 243.5,-36.53"/>
</g>
<!-- d&#45;&gt;e -->
<g id="edge6" class="edge">
<title>d&#45;&gt;e</title>
<path fill="none" stroke="black" d="M366.7,-73.49C344.22,-63.64 315.73,-51.16 291.81,-40.67"/>
<polygon fill="black" stroke="black" points="282.55,-36.61 293.51,-36.51 287.13,-38.62 291.71,-40.63 291.71,-40.63 291.71,-40.63 287.13,-38.62 289.9,-44.75 282.55,-36.61 282.55,-36.61"/>
</g>
</g>
</svg>
