<?xml version="1.0" encoding="UTF-8" standalone="no"?>
<!DOCTYPE svg PUBLIC "-//W3C//DTD SVG 1.1//EN"
 "http://www.w3.org/Graphics/SVG/1.1/DTD/svg11.dtd">
<!-- Generated by graphviz version 2.43.0 (0)
 -->
<!-- Title: example Pages: 1 -->
<svg width="105pt" height="118pt"
 viewBox="0.00 0.00 105.00 118.00" xmlns="http://www.w3.org/2000/svg" xmlns:xlink="http://www.w3.org/1999/xlink">
<g id="graph0" class="graph" transform="scale(1 1) rotate(0) translate(4 114)">
<title>example</title>
<polygon fill="white" stroke="transparent" points="-4,4 -4,-114 101,-114 101,4 -4,4"/>
<!-- a -->
<g id="node1" class="node">
<title>a</title>
<g id="a_node1"><a xlink:href="d9/d0c/classSpecies.html" target="_top" xlink:title="class Species">
<polygon fill="none" stroke="black" points="7.5,-73.5 7.5,-109.5 89.5,-109.5 89.5,-73.5 7.5,-73.5"/>
<text text-anchor="middle" x="48.5" y="-89" font-family="Helvetica,sans-Serif" font-size="10.00">class Species</text>
</a>
</g>
</g>
<!-- f -->
<g id="node2" class="node">
<title>f</title>
<g id="a_node2"><a xlink:href="db/d0c/classInteraction.html" target="_top" xlink:title="class Interaction">
<polygon fill="none" stroke="black" points="0,-0.5 0,-36.5 97,-36.5 97,-0.5 0,-0.5"/>
<text text-anchor="middle" x="48.5" y="-16" font-family="Helvetica,sans-Serif" font-size="10.00">class Interaction</text>
</a>
</g>
</g>
<!-- a&#45;&gt;f -->
<g id="edge1" class="edge">
<title>a&#45;&gt;f</title>
<path fill="none" stroke="black" d="M42.62,-73.31C41.78,-65.29 41.55,-55.55 41.92,-46.57"/>
<polygon fill="black" stroke="black" points="42.64,-36.53 46.42,-46.82 42.28,-41.52 41.93,-46.5 41.93,-46.5 41.93,-46.5 42.28,-41.52 37.44,-46.18 42.64,-36.53 42.64,-36.53"/>
</g>
<!-- f&#45;&gt;a -->
<g id="edge2" class="edge">
<title>f&#45;&gt;a</title>
<path fill="none" stroke="black" d="M54.36,-36.53C55.21,-44.53 55.45,-54.27 55.09,-63.25"/>
<polygon fill="black" stroke="black" points="54.38,-73.31 50.59,-63.02 54.73,-68.33 55.08,-63.34 55.08,-63.34 55.08,-63.34 54.73,-68.33 59.57,-63.65 54.38,-73.31 54.38,-73.31"/>
</g>
</g>
</svg>
